<svg xmlns="http://www.w3.org/2000/svg" viewBox="0 0 31.507 29.257"><g data-name="Icon ionic-md-analytics" fill="currentColor"><path data-name="Path 263" d="m24.427 9.162-6.131 9.38a3.34 3.34 0 0 1 .759 2.13 3.375 3.375 0 0 1-6.75 0 3.7 3.7 0 0 1 .056-.626l-4.05-2.355a3.354 3.354 0 0 1-2.341.942 3.394 3.394 0 0 1-1.659-.436L0 22.233v4.022a3.01 3.01 0 0 0 3 3h25.5a3.01 3.01 0 0 0 3-3V11.306l-4.12-2.735a3.373 3.373 0 0 1-2.96.591Z"/><path data-name="Path 264" d="M5.977 11.883a3.376 3.376 0 0 1 3.373 3.375c0 .148-.014.3-.028.436l4.228 2.362a3.345 3.345 0 0 1 2.138-.759 3.531 3.531 0 0 1 .731.077l6.145-9.52a3.339 3.339 0 0 1-.626-1.955 3.375 3.375 0 0 1 6.75 0 3.668 3.668 0 0 1-.091.795l2.9 1.941V3.002a3.01 3.01 0 0 0-3-3H3.002a3.01 3.01 0 0 0-3 3v16.123l2.813-2.693a3.375 3.375 0 0 1 3.164-4.549Z"/></g></svg>